<?xml version="1.0" encoding="utf-8"?>
<!-- Generator: Adobe Illustrator 28.0.0, SVG Export Plug-In . SVG Version: 6.00 Build 0)  -->
<svg version="1.1" id="Calque_1" xmlns="http://www.w3.org/2000/svg" xmlns:xlink="http://www.w3.org/1999/xlink" x="0px" y="0px"
	 viewBox="0 0 1162.2 255.1" style="enable-background:new 0 0 1162.2 255.1;" xml:space="preserve">
<style type="text/css">
	.st0{fill:none;stroke:#FFFFFF;stroke-width:2;}
	.st1{fill:#FFFF00;stroke:#FFFFFF;stroke-width:2;}
	.st2{fill:#007FFF;stroke:#FFFFFF;stroke-width:2;}
	.st3{fill:#00FFFF;stroke:#FFFFFF;stroke-width:2;}
	.st4{fill:#FF00FF;stroke:#FFFFFF;stroke-width:2;}
	.st5{fill:#5000FF;stroke:#FFFFFF;stroke-width:2;}
	.st6{fill:#FF7F00;stroke:#FFFFFF;stroke-width:2;}
	.st7{fill:none;stroke:#FFFFFF;stroke-width:2;stroke-linecap:round;}
	.st8{fill:none;stroke:#FFFFFF;stroke-width:2;stroke-miterlimit:10;}
	.st9{fill:#FF0000;stroke:#FFFFFF;stroke-width:2;stroke-miterlimit:10;}
	.st10{fill:#00FF00;stroke:#FFFFFF;stroke-width:2;stroke-miterlimit:10;}
	.st11{fill:#0000FF;stroke:#FFFFFF;stroke-width:2;stroke-miterlimit:10;}
	.st12{fill:none;}
	.st13{fill:#FFFFFF;}
	.st14{font-family:'ArialMT';}
	.st15{font-size:14px;}
	.st16{fill:#FF0000;}
	.st17{fill:#0000FF;}
	.st18{fill:#00FF00;}
	.st19{fill:#FFFF00;}
	.st20{fill:#00FFFF;}
	.st21{fill:#FF00FF;}
	.st22{fill:#FF7F00;}
	.st23{fill:#5000FF;}
	.st24{fill:#007FFF;}
</style>
<g>
	<path class="st0" d="M1026.1,211.9c0,4.4-3.7,7.9-8.3,7.9H245.5c-4.6,0-8.3-3.5-8.3-7.9V43.2c0-4.4,3.7-7.9,8.3-7.9h772.2
		c4.6,0,8.3,3.5,8.3,7.9v168.7L1026.1,211.9L1026.1,211.9z"/>
	<path class="st0" d="M953.4,171.3c0,1.6-1.3,2.9-2.9,2.9h-25.3c-1.6,0-2.9-1.3-2.9-2.9V146c0-1.6,1.3-2.9,2.9-2.9h25.3
		c1.6,0,2.9,1.3,2.9,2.9V171.3z"/>
	<path class="st0" d="M953.4,137.5c0,1.6-1.3,2.9-2.9,2.9h-25.3c-1.6,0-2.9-1.3-2.9-2.9v-25.3c0-1.6,1.3-2.9,2.9-2.9h25.3
		c1.6,0,2.9,1.3,2.9,2.9V137.5z"/>
	<path class="st0" d="M953.4,103.8c0,1.6-1.3,2.9-2.9,2.9h-25.3c-1.6,0-2.9-1.3-2.9-2.9V78.5c0-1.6,1.3-2.9,2.9-2.9h25.3
		c1.6,0,2.9,1.3,2.9,2.9V103.8z"/>
	<path class="st0" d="M953.4,70.1c0,1.6-1.3,2.9-2.9,2.9h-25.3c-1.6,0-2.9-1.3-2.9-2.9V44.8c0-1.6,1.3-2.9,2.9-2.9h25.3
		c1.6,0,2.9,1.3,2.9,2.9V70.1z"/>
	<path class="st0" d="M827.7,205.9c0,1.6-1.3,2.9-2.9,2.9h-25.3c-1.6,0-2.9-1.3-2.9-2.9v-25.3c0-1.6,1.3-2.9,2.9-2.9h25.3
		c1.6,0,2.9,1.3,2.9,2.9V205.9z"/>
	<path class="st0" d="M827.7,172.2c0,1.6-1.3,2.9-2.9,2.9h-25.3c-1.6,0-2.9-1.3-2.9-2.9v-25.3c0-1.6,1.3-2.9,2.9-2.9h25.3
		c1.6,0,2.9,1.3,2.9,2.9V172.2z"/>
	<path class="st0" d="M827.7,101.9c0,1.6-1.3,2.9-2.9,2.9h-25.3c-1.6,0-2.9-1.3-2.9-2.9V76.6c0-1.6,1.3-2.9,2.9-2.9h25.3
		c1.6,0,2.9,1.3,2.9,2.9V101.9z"/>
	<path class="st0" d="M827.7,68.2c0,1.6-1.3,2.9-2.9,2.9h-25.3c-1.6,0-2.9-1.3-2.9-2.9V42.9c0-1.6,1.3-2.9,2.9-2.9h25.3
		c1.6,0,2.9,1.3,2.9,2.9V68.2z"/>
	<path class="st0" d="M568.6,138.2c0,1.6-1.3,2.9-2.9,2.9h-25.3c-1.6,0-2.9-1.3-2.9-2.9v-25.3c0-1.6,1.3-2.9,2.9-2.9h25.3
		c1.6,0,2.9,1.3,2.9,2.9V138.2z"/>
	<path class="st0" d="M560.2,104.1c0,1.6-1.3,2.9-2.9,2.9H532c-1.6,0-2.9-1.3-2.9-2.9V78.8c0-1.6,1.3-2.9,2.9-2.9h25.3
		c1.6,0,2.9,1.3,2.9,2.9V104.1z"/>
	<path class="st0" d="M577.1,70c0,1.6-1.3,2.9-2.9,2.9h-25.3c-1.6,0-2.9-1.3-2.9-2.9V44.6c0-1.6,1.3-2.9,2.9-2.9h25.3
		c1.6,0,2.9,1.3,2.9,2.9V70z"/>
	<path class="st1" d="M400.7,138.2c0,1.6-1.3,2.9-2.9,2.9h-25.3c-1.6,0-2.9-1.3-2.9-2.9v-25.3c0-1.6,1.3-2.9,2.9-2.9h25.3
		c1.6,0,2.9,1.3,2.9,2.9V138.2z"/>
	<path class="st0" d="M392.3,104.1c0,1.6-1.3,2.9-2.9,2.9h-25.3c-1.6,0-2.9-1.3-2.9-2.9V78.8c0-1.6,1.3-2.9,2.9-2.9h25.3
		c1.6,0,2.9,1.3,2.9,2.9V104.1z"/>
	<path class="st0" d="M409.3,70c0,1.6-1.3,2.9-2.9,2.9h-25.3c-1.6,0-2.9-1.3-2.9-2.9V44.6c0-1.6,1.3-2.9,2.9-2.9h25.3
		c1.6,0,2.9,1.3,2.9,2.9V70z"/>
	<path class="st0" d="M417.6,172.2c0,1.6-1.3,2.9-2.9,2.9h-25.3c-1.6,0-2.9-1.3-2.9-2.9v-25.3c0-1.6,1.3-2.9,2.9-2.9h25.3
		c1.6,0,2.9,1.3,2.9,2.9V172.2z"/>
	<path class="st0" d="M585.5,172.2c0,1.6-1.3,2.9-2.9,2.9h-25.3c-1.6,0-2.9-1.3-2.9-2.9v-25.3c0-1.6,1.3-2.9,2.9-2.9h25.3
		c1.6,0,2.9,1.3,2.9,2.9V172.2z"/>
	<path class="st0" d="M919.9,171.3c0,1.6-1.3,2.9-2.9,2.9h-25.3c-1.6,0-2.9-1.3-2.9-2.9V146c0-1.6,1.3-2.9,2.9-2.9H917
		c1.6,0,2.9,1.3,2.9,2.9V171.3z"/>
	<path class="st0" d="M794.2,205.9c0,1.6-1.3,2.9-2.9,2.9H766c-1.6,0-2.9-1.3-2.9-2.9v-25.3c0-1.6,1.3-2.9,2.9-2.9h25.3
		c1.6,0,2.9,1.3,2.9,2.9V205.9z"/>
	<path class="st0" d="M919.9,137.5c0,1.6-1.3,2.9-2.9,2.9h-25.3c-1.6,0-2.9-1.3-2.9-2.9v-25.3c0-1.6,1.3-2.9,2.9-2.9H917
		c1.6,0,2.9,1.3,2.9,2.9V137.5z"/>
	<path class="st0" d="M919.9,103.8c0,1.6-1.3,2.9-2.9,2.9h-25.3c-1.6,0-2.9-1.3-2.9-2.9V78.5c0-1.6,1.3-2.9,2.9-2.9H917
		c1.6,0,2.9,1.3,2.9,2.9V103.8z"/>
	<path class="st0" d="M919.9,70.1c0,1.6-1.3,2.9-2.9,2.9h-25.3c-1.6,0-2.9-1.3-2.9-2.9V44.8c0-1.6,1.3-2.9,2.9-2.9H917
		c1.6,0,2.9,1.3,2.9,2.9V70.1z"/>
	<path class="st0" d="M794.2,101.9c0,1.6-1.3,2.9-2.9,2.9H766c-1.6,0-2.9-1.3-2.9-2.9V76.6c0-1.6,1.3-2.9,2.9-2.9h25.3
		c1.6,0,2.9,1.3,2.9,2.9V101.9z"/>
	<path class="st0" d="M794.2,68.2c0,1.6-1.3,2.9-2.9,2.9H766c-1.6,0-2.9-1.3-2.9-2.9V42.9c0-1.6,1.3-2.9,2.9-2.9h25.3
		c1.6,0,2.9,1.3,2.9,2.9V68.2z"/>
	<path class="st0" d="M501.4,138.2c0,1.6-1.3,2.9-2.9,2.9h-25.3c-1.6,0-2.9-1.3-2.9-2.9v-25.3c0-1.6,1.3-2.9,2.9-2.9h25.3
		c1.6,0,2.9,1.3,2.9,2.9C501.4,112.9,501.4,138.2,501.4,138.2z"/>
	<path class="st0" d="M467.9,138.2c0,1.6-1.3,2.9-2.9,2.9h-25.3c-1.6,0-2.9-1.3-2.9-2.9v-25.3c0-1.6,1.3-2.9,2.9-2.9H465
		c1.6,0,2.9,1.3,2.9,2.9V138.2z"/>
	<path class="st0" d="M434.3,138.2c0,1.6-1.3,2.9-2.9,2.9h-25.3c-1.6,0-2.9-1.3-2.9-2.9v-25.3c0-1.6,1.3-2.9,2.9-2.9h25.3
		c1.6,0,2.9,1.3,2.9,2.9V138.2z"/>
	<path class="st0" d="M535,138.2c0,1.6-1.3,2.9-2.9,2.9h-25.3c-1.6,0-2.9-1.3-2.9-2.9v-25.3c0-1.6,1.3-2.9,2.9-2.9h25.3
		c1.6,0,2.9,1.3,2.9,2.9V138.2z"/>
	<path class="st0" d="M493.1,104.1c0,1.6-1.3,2.9-2.9,2.9h-25.3c-1.6,0-2.9-1.3-2.9-2.9V78.8c0-1.6,1.3-2.9,2.9-2.9h25.3
		c1.6,0,2.9,1.3,2.9,2.9V104.1z"/>
	<path class="st0" d="M459.5,104.1c0,1.6-1.3,2.9-2.9,2.9h-25.3c-1.6,0-2.9-1.3-2.9-2.9V78.8c0-1.6,1.3-2.9,2.9-2.9h25.3
		c1.6,0,2.9,1.3,2.9,2.9V104.1z"/>
	<path class="st2" d="M425.9,104.1c0,1.6-1.3,2.9-2.9,2.9h-25.3c-1.6,0-2.9-1.3-2.9-2.9V78.8c0-1.6,1.3-2.9,2.9-2.9H423
		c1.6,0,2.9,1.3,2.9,2.9V104.1z"/>
	<path class="st0" d="M526.7,104.1c0,1.6-1.3,2.9-2.9,2.9h-25.3c-1.6,0-2.9-1.3-2.9-2.9V78.8c0-1.6,1.3-2.9,2.9-2.9h25.3
		c1.6,0,2.9,1.3,2.9,2.9V104.1z"/>
	<path class="st0" d="M476.4,70c0,1.6-1.3,2.9-2.9,2.9h-25.3c-1.6,0-2.9-1.3-2.9-2.9V44.6c0-1.6,1.3-2.9,2.9-2.9h25.3
		c1.6,0,2.9,1.3,2.9,2.9V70z"/>
	<path class="st0" d="M442.8,70c0,1.6-1.3,2.9-2.9,2.9h-25.3c-1.6,0-2.9-1.3-2.9-2.9V44.6c0-1.6,1.3-2.9,2.9-2.9h25.3
		c1.6,0,2.9,1.3,2.9,2.9V70z"/>
	<path class="st0" d="M543.6,70c0,1.6-1.3,2.9-2.9,2.9h-25.3c-1.6,0-2.9-1.3-2.9-2.9V44.6c0-1.6,1.3-2.9,2.9-2.9h25.3
		c1.6,0,2.9,1.3,2.9,2.9V70z"/>
	<path class="st0" d="M510,70c0,1.6-1.3,2.9-2.9,2.9h-25.3c-1.6,0-2.9-1.3-2.9-2.9V44.6c0-1.6,1.3-2.9,2.9-2.9h25.3
		c1.6,0,2.9,1.3,2.9,2.9V70z"/>
	<path class="st0" d="M484.8,172.2c0,1.6-1.3,2.9-2.9,2.9h-25.4c-1.6,0-2.9-1.3-2.9-2.9v-25.3c0-1.6,1.3-2.9,2.9-2.9h25.3
		c1.6,0,2.9,1.3,2.9,2.9L484.8,172.2L484.8,172.2L484.8,172.2z"/>
	<path class="st0" d="M451.2,172.2c0,1.6-1.3,2.9-2.9,2.9H423c-1.6,0-2.9-1.3-2.9-2.9v-25.3c0-1.6,1.3-2.9,2.9-2.9h25.3
		c1.6,0,2.9,1.3,2.9,2.9V172.2z"/>
	<path class="st0" d="M551.9,172.2c0,1.6-1.3,2.9-2.9,2.9h-25.3c-1.6,0-2.9-1.3-2.9-2.9v-25.3c0-1.6,1.3-2.9,2.9-2.9H549
		c1.6,0,2.9,1.3,2.9,2.9V172.2z"/>
	<path class="st0" d="M518.4,172.2c0,1.6-1.3,2.9-2.9,2.9h-25.3c-1.6,0-2.9-1.3-2.9-2.9v-25.3c0-1.6,1.3-2.9,2.9-2.9h25.3
		c1.6,0,2.9,1.3,2.9,2.9V172.2L518.4,172.2z"/>
	<path class="st0" d="M952.3,205.9c0,1.6-1.3,2.9-2.9,2.9h-56.5c-1.6,0-2.9-1.3-2.9-2.9v-25.3c0-1.6,1.3-2.9,2.9-2.9h56.5
		c1.6,0,2.9,1.3,2.9,2.9V205.9z"/>
	<path class="st0" d="M1020.9,205.6c0,1.6-1.3,2.9-2.9,2.9h-25.3c-1.6,0-2.9-1.3-2.9-2.9v-59.3c0-1.6,1.3-2.9,2.9-2.9h25.3
		c1.6,0,2.9,1.3,2.9,2.9V205.6z"/>
	<path class="st0" d="M986.9,137.5c0,1.6-1.3,2.9-2.9,2.9h-25.3c-1.6,0-2.9-1.3-2.9-2.9v-25.3c0-1.6,1.3-2.9,2.9-2.9H984
		c1.6,0,2.9,1.3,2.9,2.9V137.5z"/>
	<path class="st0" d="M986.9,103.8c0,1.6-1.3,2.9-2.9,2.9h-25.3c-1.6,0-2.9-1.3-2.9-2.9V78.5c0-1.6,1.3-2.9,2.9-2.9H984
		c1.6,0,2.9,1.3,2.9,2.9V103.8z"/>
	<path class="st0" d="M986.9,205.9c0,1.6-1.3,2.9-2.9,2.9h-25.3c-1.6,0-2.9-1.3-2.9-2.9v-25.3c0-1.6,1.3-2.9,2.9-2.9H984
		c1.6,0,2.9,1.3,2.9,2.9V205.9z"/>
	<path class="st0" d="M986.9,171.3c0,1.6-1.3,2.9-2.9,2.9h-25.3c-1.6,0-2.9-1.3-2.9-2.9V146c0-1.6,1.3-2.9,2.9-2.9H984
		c1.6,0,2.9,1.3,2.9,2.9V171.3z"/>
	<path class="st0" d="M986.9,70.1c0,1.6-1.3,2.9-2.9,2.9h-25.3c-1.6,0-2.9-1.3-2.9-2.9V44.8c0-1.6,1.3-2.9,2.9-2.9H984
		c1.6,0,2.9,1.3,2.9,2.9V70.1z"/>
	<path class="st0" d="M861.2,205.9c0,1.6-1.3,2.9-2.9,2.9H833c-1.6,0-2.9-1.3-2.9-2.9v-25.3c0-1.6,1.3-2.9,2.9-2.9h25.3
		c1.6,0,2.9,1.3,2.9,2.9V205.9z"/>
	<path class="st0" d="M861.2,101.9c0,1.6-1.3,2.9-2.9,2.9H833c-1.6,0-2.9-1.3-2.9-2.9V76.6c0-1.6,1.3-2.9,2.9-2.9h25.3
		c1.6,0,2.9,1.3,2.9,2.9V101.9z"/>
	<path class="st0" d="M861.2,68.2c0,1.6-1.3,2.9-2.9,2.9H833c-1.6,0-2.9-1.3-2.9-2.9V42.9c0-1.6,1.3-2.9,2.9-2.9h25.3
		c1.6,0,2.9,1.3,2.9,2.9V68.2z"/>
	<path class="st0" d="M602.2,138.2c0,1.6-1.3,2.9-2.9,2.9H574c-1.6,0-2.9-1.3-2.9-2.9v-25.3c0-1.6,1.3-2.9,2.9-2.9h25.3
		c1.6,0,2.9,1.3,2.9,2.9V138.2z"/>
	<path class="st0" d="M593.8,104.1c0,1.6-1.3,2.9-2.9,2.9h-25.3c-1.6,0-2.9-1.3-2.9-2.9V78.8c0-1.6,1.3-2.9,2.9-2.9h25.3
		c1.6,0,2.9,1.3,2.9,2.9V104.1z"/>
	<path class="st0" d="M610.7,70c0,1.6-1.3,2.9-2.9,2.9h-25.3c-1.6,0-2.9-1.3-2.9-2.9V44.6c0-1.6,1.3-2.9,2.9-2.9h25.3
		c1.6,0,2.9,1.3,2.9,2.9V70L610.7,70z"/>
	<path class="st3" d="M367.1,138.2c0,1.6-1.3,2.9-2.9,2.9h-25.3c-1.6,0-2.9-1.3-2.9-2.9v-25.3c0-1.6,1.3-2.9,2.9-2.9h25.3
		c1.6,0,2.9,1.3,2.9,2.9V138.2z"/>
	<path class="st4" d="M358.8,104.1c0,1.6-1.3,2.9-2.9,2.9h-25.4c-1.6,0-2.9-1.3-2.9-2.9V78.8c0-1.6,1.3-2.9,2.9-2.9h25.3
		c1.6,0,2.9,1.3,2.9,2.9L358.8,104.1C358.7,104.1,358.8,104.1,358.8,104.1z"/>
	<path class="st0" d="M375.7,70c0,1.6-1.3,2.9-2.9,2.9h-25.3c-1.6,0-2.9-1.3-2.9-2.9V44.6c0-1.6,1.3-2.9,2.9-2.9h25.3
		c1.6,0,2.9,1.3,2.9,2.9V70z"/>
	<path class="st0" d="M384.1,172.2c0,1.6-1.3,2.9-2.9,2.9h-25.3c-1.6,0-2.9-1.3-2.9-2.9v-25.3c0-1.6,1.3-2.9,2.9-2.9h25.3
		c1.6,0,2.9,1.3,2.9,2.9V172.2z"/>
	<path class="st0" d="M619.1,172.2c0,1.6-1.3,2.9-2.9,2.9h-25.3c-1.6,0-2.9-1.3-2.9-2.9v-25.3c0-1.6,1.3-2.9,2.9-2.9h25.3
		c1.6,0,2.9,1.3,2.9,2.9V172.2z"/>
	<path class="st0" d="M342.1,70c0,1.6-1.3,2.9-2.9,2.9h-25.3c-1.6,0-2.9-1.3-2.9-2.9V44.6c0-1.6,1.3-2.9,2.9-2.9h25.3
		c1.6,0,2.9,1.3,2.9,2.9V70z"/>
	<path class="st0" d="M1020.6,136.5c0,1.6-1.3,2.9-2.9,2.9h-25.3c-1.6,0-2.9-1.3-2.9-2.9V79.6c0-1.6,1.3-2.9,2.9-2.9h25.3
		c1.6,0,2.9,1.3,2.9,2.9V136.5z"/>
	<path class="st0" d="M1020.6,70.1c0,1.6-1.3,2.9-2.9,2.9h-25.3c-1.6,0-2.9-1.3-2.9-2.9V44.8c0-1.6,1.3-2.9,2.9-2.9h25.3
		c1.6,0,2.9,1.3,2.9,2.9V70.1z"/>
	<path class="st0" d="M635.7,138.2c0,1.6-1.3,2.9-2.9,2.9h-25.3c-1.6,0-2.9-1.3-2.9-2.9v-25.3c0-1.6,1.3-2.9,2.9-2.9h25.3
		c1.6,0,2.9,1.3,2.9,2.9V138.2L635.7,138.2z"/>
	<path class="st0" d="M702.9,138.2c0,1.6-1.3,2.9-2.9,2.9h-25.3c-1.6,0-2.9-1.3-2.9-2.9v-25.3c0-1.6,1.3-2.9,2.9-2.9H700
		c1.6,0,2.9,1.3,2.9,2.9V138.2z"/>
	<path class="st0" d="M669.3,138.2c0,1.6-1.3,2.9-2.9,2.9h-25.3c-1.6,0-2.9-1.3-2.9-2.9v-25.3c0-1.6,1.3-2.9,2.9-2.9h25.3
		c1.6,0,2.9,1.3,2.9,2.9V138.2z"/>
	<path class="st0" d="M627.4,104.1c0,1.6-1.3,2.9-2.9,2.9h-25.3c-1.6,0-2.9-1.3-2.9-2.9V78.8c0-1.6,1.3-2.9,2.9-2.9h25.3
		c1.6,0,2.9,1.3,2.9,2.9V104.1L627.4,104.1z"/>
	<path class="st0" d="M694.5,104.1c0,1.6-1.3,2.9-2.9,2.9h-25.3c-1.6,0-2.9-1.3-2.9-2.9V78.8c0-1.6,1.3-2.9,2.9-2.9h25.3
		c1.6,0,2.9,1.3,2.9,2.9V104.1z"/>
	<path class="st0" d="M661,104.1c0,1.6-1.3,2.9-2.9,2.9h-25.3c-1.6,0-2.9-1.3-2.9-2.9V78.8c0-1.6,1.3-2.9,2.9-2.9h25.3
		c1.6,0,2.9,1.3,2.9,2.9V104.1z"/>
	<path class="st0" d="M677.9,70c0,1.6-1.3,2.9-2.9,2.9h-25.3c-1.6,0-2.9-1.3-2.9-2.9V44.6c0-1.6,1.3-2.9,2.9-2.9H675
		c1.6,0,2.9,1.3,2.9,2.9V70z"/>
	<path class="st0" d="M644.3,70c0,1.6-1.3,2.9-2.9,2.9h-25.3c-1.6,0-2.9-1.3-2.9-2.9V44.6c0-1.6,1.3-2.9,2.9-2.9h25.3
		c1.6,0,2.9,1.3,2.9,2.9V70z"/>
	<path class="st0" d="M735.1,205.9c0,1.6-1.3,2.9-2.9,2.9h-31.4c-1.6,0-2.9-1.3-2.9-2.9v-25.3c0-1.6,1.3-2.9,2.9-2.9h31.4
		c1.6,0,2.9,1.3,2.9,2.9V205.9z"/>
	<path class="st0" d="M733.6,172.5c0,1.6-1.3,2.9-2.9,2.9h-70.8c-1.6,0-2.9-1.3-2.9-2.9v-25.3c0-1.6,1.3-2.9,2.9-2.9h70.8
		c1.6,0,2.9,1.3,2.9,2.9V172.5z"/>
	<path class="st0" d="M734.5,70.2c0,1.6-1.3,2.9-2.9,2.9h-47.4c-1.6,0-2.9-1.3-2.9-2.9V44.9c0-1.6,1.3-2.9,2.9-2.9h47.4
		c1.6,0,2.9,1.3,2.9,2.9V70.2z"/>
	<path class="st0" d="M732.2,77h-31.4c-1.6,0-2.9,1.3-2.9,2.9v25.3c0,1.6,1.3,2.9,2.9,2.9h5.7v28.8c0,1.6,1.3,2.9,2.9,2.9h22.7
		c1.6,0,2.9-1.3,2.9-2.9v-57C735.1,78.3,733.8,77,732.2,77L732.2,77z"/>
	<path class="st0" d="M652.7,172.2c0,1.6-1.3,2.9-2.9,2.9h-25.3c-1.6,0-2.9-1.3-2.9-2.9v-25.3c0-1.6,1.3-2.9,2.9-2.9h25.3
		c1.6,0,2.9,1.3,2.9,2.9V172.2z"/>
	<path class="st1" d="M333.6,138.2c0,1.6-1.3,2.9-2.9,2.9h-25.4c-1.6,0-2.9-1.3-2.9-2.9v-25.3c0-1.6,1.3-2.9,2.9-2.9h25.3
		c1.6,0,2.9,1.3,2.9,2.9v25.3C333.5,138.2,333.6,138.2,333.6,138.2z"/>
	<path class="st5" d="M325.2,104.1c0,1.6-1.3,2.9-2.9,2.9h-25.4c-1.6,0-2.9-1.3-2.9-2.9V78.8c0-1.6,1.3-2.9,2.9-2.9h25.3
		c1.6,0,2.9,1.3,2.9,2.9L325.2,104.1L325.2,104.1z"/>
	<path class="st0" d="M308.5,70c0,1.6-1.3,2.9-2.9,2.9h-25.3c-1.6,0-2.9-1.3-2.9-2.9V44.6c0-1.6,1.3-2.9,2.9-2.9h25.3
		c1.6,0,2.9,1.3,2.9,2.9C308.5,44.6,308.5,70,308.5,70z"/>
	<path class="st0" d="M274.5,70c0,1.6-1.3,2.9-2.9,2.9h-25.4c-1.6,0-2.9-1.3-2.9-2.9V44.6c0-1.6,1.3-2.9,2.9-2.9h25.3
		c1.6,0,2.9,1.3,2.9,2.9L274.5,70L274.5,70z"/>
	<path class="st0" d="M350.5,172.2c0,1.6-1.3,2.9-2.9,2.9h-25.3c-1.6,0-2.9-1.3-2.9-2.9v-25.3c0-1.6,1.3-2.9,2.9-2.9h25.3
		c1.6,0,2.9,1.3,2.9,2.9C350.5,146.9,350.5,172.2,350.5,172.2z"/>
	<path class="st0" d="M316.9,172.2c0,1.6-1.3,2.9-2.9,2.9h-25.3c-1.6,0-2.9-1.3-2.9-2.9v-25.3c0-1.6,1.3-2.9,2.9-2.9H314
		c1.6,0,2.9,1.3,2.9,2.9C316.9,146.9,316.9,172.2,316.9,172.2z"/>
	<path class="st6" d="M283.1,172.2c0,1.6-1.3,2.9-2.9,2.9h-33.5c-1.6,0-2.9-1.3-2.9-2.9v-25.3c0-1.6,1.3-2.9,2.9-2.9h33.5
		c1.6,0,2.9,1.3,2.9,2.9V172.2z"/>
	<path class="st0" d="M290,205.9c0,1.6-1.3,2.9-2.9,2.9h-40.3c-1.6,0-2.9-1.3-2.9-2.9v-25.3c0-1.6,1.3-2.9,2.9-2.9h40.3
		c1.6,0,2.9,1.3,2.9,2.9C290,180.6,290,205.9,290,205.9z"/>
	<path class="st0" d="M291.1,104.1c0,1.6-1.3,2.9-2.9,2.9h-41.4c-1.6,0-2.9-1.3-2.9-2.9V78.8c0-1.6,1.3-2.9,2.9-2.9h41.4
		c1.6,0,2.9,1.3,2.9,2.9V104.1z"/>
	<path class="st0" d="M299,138.2c0,1.6-1.3,2.9-2.9,2.9h-49c-1.6,0-2.9-1.3-2.9-2.9v-25.3c0-1.6,1.3-2.9,2.9-2.9h49
		c1.6,0,2.9,1.3,2.9,2.9V138.2z"/>
	<path class="st0" d="M324.9,205.9c0,1.6-1.3,2.9-2.9,2.9h-25.4c-1.6,0-2.9-1.3-2.9-2.9v-25.3c0-1.6,1.3-2.9,2.9-2.9h25.3
		c1.6,0,2.9,1.3,2.9,2.9L324.9,205.9L324.9,205.9z"/>
	<path class="st0" d="M661.4,205.9c0,1.6-1.3,2.9-2.9,2.9h-25.3c-1.6,0-2.9-1.3-2.9-2.9v-25.3c0-1.6,1.3-2.9,2.9-2.9h25.3
		c1.6,0,2.9,1.3,2.9,2.9V205.9L661.4,205.9z"/>
	<path class="st0" d="M694.9,205.9c0,1.6-1.3,2.9-2.9,2.9h-25.3c-1.6,0-2.9-1.3-2.9-2.9v-25.3c0-1.6,1.3-2.9,2.9-2.9H692
		c1.6,0,2.9,1.3,2.9,2.9V205.9z"/>
	<path class="st0" d="M372.6,205.9c0,1.6-1.3,2.9-2.9,2.9h-39c-1.6,0-2.9-1.3-2.9-2.9v-25.3c0-1.6,1.3-2.9,2.9-2.9h39
		c1.6,0,2.9,1.3,2.9,2.9V205.9z"/>
	<path class="st0" d="M627,205.9c0,1.6-1.3,2.9-2.9,2.9h-40.3c-1.6,0-2.9-1.3-2.9-2.9v-25.3c0-1.6,1.3-2.9,2.9-2.9h40.3
		c1.6,0,2.9,1.3,2.9,2.9V205.9z"/>
	<path class="st0" d="M572.2,205.9c0,1.6-1.3,2.9-2.9,2.9H384.4c-1.6,0-2.9-1.3-2.9-2.9v-25.3c0-1.6,1.3-2.9,2.9-2.9h184.9
		c1.6,0,2.9,1.3,2.9,2.9V205.9L572.2,205.9z"/>
	<g>
		<line class="st7" x1="413.9" y1="135.2" x2="423.4" y2="135.2"/>
		<line class="st7" x1="514.2" y1="135.2" x2="523.8" y2="135.2"/>
	</g>
	<path class="st8" d="M1049.7,143.2c0-9.1,0-18.1,0-27.2c0-0.9,0.3-1.3,1.1-1.7c12.7-6,26-9.4,40-10.1c1.8-0.1,1.8-0.1,1.8,1.7
		c0,2,0,4,0,6c0,4,3.2,7.1,7.1,7.1c3.9,0,6.9-3.1,7-7.1c0-2,0-4,0-6c0-0.9,0.2-1.3,1.2-1.2c14.6,1.6,28.2,6.2,40.8,13.5
		c0.6,0.4,0.9,0.8,0.9,1.5c0,16.1,0.1,32.3,0,48.4c-0.2,16.6-11.4,30.1-27.6,33.6c-2.1,0.4-4.2,0.7-6.3,0.7
		c-11.2,0-22.4,0.3-33.5-0.1c-15.6-0.5-29.4-12.9-31.9-28.2c-0.3-2.1-0.5-4.2-0.5-6.3C1049.7,159.6,1049.7,151.4,1049.7,143.2
		L1049.7,143.2L1049.7,143.2z"/>
	<path class="st9" d="M1049.7,96.1c0-3.4,0-6.8,0-10.2c0-16.9,12.9-31.3,29.6-33.1c5-0.5,10.1-0.1,15.2-0.2c2.6,0,2.3-0.3,2.3,2.4
		c0,7.1,0,14.2,0,21.3c0,0.8-0.2,1.3-1.1,1.6c-2.7,1-4.4,3.5-4.4,6.5c0,4.3,0,8.5,0,12.8c0,1-0.3,1.3-1.3,1.4
		c-13.5,0.8-26.2,4.3-38.3,10.4c-0.2,0.1-0.5,0.2-0.7,0.4c-1.1,0.5-1.4,0.3-1.4-0.9C1049.7,104.4,1049.7,100.3,1049.7,96.1
		L1049.7,96.1L1049.7,96.1z"/>
	<path class="st10" d="M1104.4,96.4c0,3.6,0,7.1,0,10.7c0,0.7,0,1.4-0.2,2.1c-0.6,2.7-2.5,4.5-4.6,4.4s-3.9-2-4.4-4.7
		c-0.1-0.6-0.2-1.3-0.2-1.9c0-7,0-14.1,0-21.1c0-1.5,0.3-3,1.1-4.3c1.8-3,5.2-3.1,7.2-0.2c0.8,1.2,1.2,2.6,1.2,4.1
		C1104.4,89.1,1104.4,92.8,1104.4,96.4L1104.4,96.4L1104.4,96.4z"/>
	<path class="st11" d="M1149.4,96.1c0-3.4,0-6.8,0-10.2c0-16.9-12.9-31.3-29.6-33.1c-5-0.5-10.1-0.1-15.2-0.2
		c-2.6,0-2.3-0.3-2.3,2.4c0,7.1,0,14.2,0,21.3c0,0.8,0.2,1.3,1.1,1.6c2.7,1,4.4,3.5,4.4,6.5c0,4.3,0,8.5,0,12.8c0,1,0.3,1.3,1.3,1.4
		c13.5,0.8,26.2,4.3,38.3,10.4c0.2,0.1,0.5,0.2,0.7,0.4c1.1,0.5,1.4,0.3,1.4-0.9C1149.4,104.4,1149.4,100.3,1149.4,96.1L1149.4,96.1
		L1149.4,96.1z"/>
	<path class="st12" d="M366.1,137.4c0,1.5-1.2,2.7-2.7,2.7h-23.7c-1.5,0-2.7-1.2-2.7-2.7v-23.6c0-1.5,1.2-2.7,2.7-2.7h23.7
		c1.5,0,2.7,1.2,2.7,2.7V137.4z"/>
</g>
<g>
	<text transform="matrix(1 0 0 1 44.1612 29.2385)" class="st13 st14 st15">Tirer</text>
	<text transform="matrix(1 0 0 1 44.1613 105.774)" class="st13 st14 st15">Déplacement</text>
	<text transform="matrix(1 0 0 1 44.1613 54.7502)" class="st13 st14 st15">Viser</text>
	<text transform="matrix(1 0 0 1 44.1612 80.2623)" class="st13 st14 st15">Changer d’arme</text>
	<text transform="matrix(1 0 0 1 44.1613 131.2861)" class="st13 st14 st15">S’accroupir/S’allonger</text>
	<text transform="matrix(1 0 0 1 44.1613 156.7974)" class="st13 st14 st15">Sauter</text>
	<text transform="matrix(1 0 0 1 44.1613 182.3093)" class="st13 st14 st15">Dash</text>
	<text transform="matrix(1 0 0 1 44.1613 207.8209)" class="st13 st14 st15">Capacité principale</text>
	<text transform="matrix(1 0 0 1 44.1614 233.3329)" class="st13 st14 st15">Capacité secondaire</text>
	<circle class="st16" cx="23.8" cy="25.5" r="11.3"/>
	<circle class="st17" cx="23.8" cy="51" r="11.3"/>
	<circle class="st18" cx="23.8" cy="76.5" r="11.3"/>
	<circle class="st19" cx="23.8" cy="102.1" r="11.3"/>
	<circle class="st20" cx="23.8" cy="127.6" r="11.3"/>
	<circle class="st21" cx="23.8" cy="153.1" r="11.3"/>
	<circle class="st22" cx="23.8" cy="178.6" r="11.3"/>
	<circle class="st23" cx="23.8" cy="204.1" r="11.3"/>
	<circle class="st24" cx="23.8" cy="229.6" r="11.3"/>
</g>
</svg>
