<?xml version="1.0" encoding="UTF-8"?>
<svg id="Calque_1" data-name="Calque 1" xmlns="http://www.w3.org/2000/svg" viewBox="0 0 221.5 127.2">
  <defs>
    <style>
      .cls-1 {
        font-family: MyriadPro-Regular, 'Myriad Pro';
        font-size: 12px;
      }

      .cls-2 {
        letter-spacing: 0em;
      }

      .cls-3 {
        fill: red;
      }

      .cls-3, .cls-4, .cls-5 {
        stroke-width: 0px;
      }

      .cls-6 {
        letter-spacing: 0em;
      }

      .cls-7 {
        letter-spacing: 0em;
      }

      .cls-8 {
        letter-spacing: -.01em;
      }

      .cls-4 {
        fill: #f15a24;
      }

      .cls-9 {
        letter-spacing: 0em;
      }

      .cls-5 {
        fill: lime;
      }

      .cls-10 {
        letter-spacing: -.01em;
      }

      .cls-11 {
        fill: none;
        stroke: #000;
        stroke-miterlimit: 10;
        stroke-width: .5px;
      }
    </style>
  </defs>
  <g>
    <path class="cls-11" d="m180.54.3c-2.06-.11-5.71-.25-9.59,1.76-.49.26-1.68.96-2.8,1.84-7.21,5.68-8.58,18.34.39,24.55.78.54,1.6,1.04,2.35,1.63.66.52.76,1.1-.11,1.54-.33.17-.67.36-1.02.43-1.1.2-2.21.3-3.31.52-2.56.52-4.48,2.11-6.29,3.86-3.17,3.07-6.26,6.22-9.46,9.25-3.38,3.2-6.88,6.28-10.27,9.48-1.23,1.16-2.34,2.37-2.56,4.28-.28,2.5.92,4.51,2.58,5.54,1.94,1.2,4.1,1.5,5.93-.02,2.68-2.22,5.13-4.71,7.7-7.05,1.84-1.68,3.68-3.36,5.61-4.93.94-.76,1.86-.21,1.94,1.03.02.33,0,.67-.04,1-.44,4.35-.89,8.69-1.35,13.04-.6,5.67-1.24,11.33-1.81,17-.52,5.13-.97,10.28-1.46,15.41-.19,2.03-.45,4.05-.62,6.08-.12,1.41-.11,2.82-.21,4.23-.08,1.18-.41,2.21-1.36,3.09-2.12,1.99-3.73,4.35-4.48,7.21-.65,2.48.2,4.12,2.61,4.42,3.36.42,6.67,1.34,10.14.91,2.98-.37,5.13-1.96,6.71-4.25,1.58-2.3,1.99-5.08,2.19-7.84.53-7.38.96-14.77,2.44-22.05.54-2.66,1.24-5.27,2.74-7.57,1.45-2.23,3.94-2.32,5.35-.06,1.07,1.71,2,3.56,2.65,5.47,2.91,8.56,3.73,17.54,5.01,26.42.81,5.63,4.7,9.99,10.38,10.4,2.71.2,5.53-.33,8.23-.89,3.06-.64,4.07-2.02,2.8-4.97-.69-1.6-1.67-3.24-2.94-4.38-2.5-2.25-3.27-5.02-3.53-8.19-.24-2.98-.67-5.95-1.12-8.91-.81-5.38-1.75-10.73-2.55-16.11-.87-5.84-1.63-11.69-2.43-17.54-.49-3.62-1-7.25-1.41-10.88-.06-.52.2-1.32.59-1.58.39-.27,1.17-.17,1.7.02.52.18.98.62,1.38,1.03,3.29,3.36,6.57,6.72,9.83,10.1,2.88,3,8.17,3.63,10.03-1.96.34-1.02-.09-2.33-.27-3.48-.05-.32-.53-.55-.72-.87-.32-.54-.45-1.24-.87-1.66-3.18-3.21-6.39-6.39-9.63-9.53-3.64-3.53-7.3-7.05-11.03-10.48-1.94-1.79-3.93-3.6-6.72-4.03-1.1-.17-2.21-.32-3.31-.56-.32-.07-.81-.36-.84-.59-.05-.33.22-.75.44-1.06.16-.22.47-.33.71-.5,3.07-2.23,5.72-4.88,7.07-8.47.93-2.49,1.15-5.18.7-7.86-.29-1.71-.81-3.3-1.59-4.77-.85-1.61-1.8-2.73-2.38-3.34-.4-.42-1.83-1.9-4.16-3.13-3.25-1.72-6.24-1.91-8-2Z"/>
    <circle class="cls-3" cx="179.59" cy="15.4" r="10"/>
    <circle class="cls-5" cx="143.54" cy="59.3" r="4"/>
    <circle class="cls-5" cx="214.59" cy="60.4" r="4"/>
    <circle class="cls-5" cx="160.59" cy="118.4" r="5"/>
    <circle class="cls-5" cx="200.54" cy="118.3" r="5"/>
    <ellipse class="cls-4" cx="179.54" cy="55.3" rx="10" ry="20"/>
  </g>
  <g>
    <g>
      <circle class="cls-5" cx="10" cy="63.6" r="10"/>
      <text class="cls-1" transform="translate(25 67.12)"><tspan class="cls-8" x="0" y="0">Z</tspan><tspan x="6.49" y="0">one à faible dég</tspan><tspan class="cls-2" x="86.42" y="0">â</tspan><tspan x="92.16" y="0">ts</tspan></text>
    </g>
    <g>
      <circle class="cls-4" cx="10" cy="41.6" r="10"/>
      <text class="cls-1" transform="translate(25 45.12)"><tspan class="cls-8" x="0" y="0">Z</tspan><tspan x="6.49" y="0">one à m</tspan><tspan class="cls-7" x="46.63" y="0">o</tspan><tspan class="cls-10" x="53.14" y="0">y</tspan><tspan x="58.67" y="0">en dég</tspan><tspan class="cls-2" x="93.37" y="0">â</tspan><tspan x="99.11" y="0">ts</tspan></text>
    </g>
    <g>
      <circle class="cls-3" cx="10" cy="85.6" r="10"/>
      <text class="cls-1" transform="translate(25 89.12)"><tspan class="cls-8" x="0" y="0">Z</tspan><tspan x="6.49" y="0">one à </tspan><tspan class="cls-9" x="36.62" y="0">g</tspan><tspan class="cls-10" x="43.26" y="0">r</tspan><tspan class="cls-6" x="47.06" y="0">os dég</tspan><tspan class="cls-2" x="80.44" y="0">â</tspan><tspan x="86.17" y="0">ts</tspan></text>
    </g>
  </g>
</svg>