<?xml version="1.0" encoding="utf-8"?>
<!-- Generator: Adobe Illustrator 28.0.0, SVG Export Plug-In . SVG Version: 6.00 Build 0)  -->
<svg version="1.1" id="Calque_1" xmlns="http://www.w3.org/2000/svg" xmlns:xlink="http://www.w3.org/1999/xlink" x="0px" y="0px"
	 viewBox="0 0 210 190" enable-background="new 0 0 210 190" xml:space="preserve">
<g>
	<path fill="none" stroke="#FFFFFF" stroke-width="0.5" stroke-miterlimit="10" d="M149.4,5.1c-3-0.2-8.2-0.4-13.8,2.5
		c-0.7,0.4-2.4,1.4-4,2.6c-10.4,8.1-12.3,26.1,0.6,34.9c1.1,0.8,2.3,1.5,3.4,2.3c0.9,0.7,1.1,1.6-0.2,2.2c-0.5,0.2-1,0.5-1.5,0.6
		c-1.6,0.3-3.2,0.4-4.8,0.7c-3.7,0.7-6.4,3-9.1,5.5c-4.6,4.4-9,8.8-13.6,13.1c-4.9,4.5-9.9,8.9-14.8,13.5c-1.8,1.6-3.4,3.4-3.7,6.1
		c-0.4,3.6,1.3,6.4,3.7,7.9c2.8,1.7,5.9,2.1,8.5,0c3.9-3.2,7.4-6.7,11.1-10c2.6-2.4,5.3-4.8,8.1-7c1.4-1.1,2.7-0.3,2.8,1.5
		c0,0.5,0,1-0.1,1.4c-0.6,6.2-1.3,12.3-1.9,18.5c-0.9,8.1-1.8,16.1-2.6,24.1c-0.7,7.3-1.4,14.6-2.1,21.9c-0.3,2.9-0.6,5.8-0.9,8.6
		c-0.2,2-0.2,4-0.3,6c-0.1,1.7-0.6,3.1-2,4.4c-3.1,2.8-5.4,6.2-6.4,10.2c-0.9,3.5,0.3,5.9,3.8,6.3c4.8,0.6,9.6,1.9,14.6,1.3
		c4.3-0.5,7.4-2.8,9.7-6c2.3-3.3,2.9-7.2,3.2-11.1c0.8-10.5,1.4-21,3.5-31.3c0.8-3.8,1.8-7.5,3.9-10.8c2.1-3.2,5.7-3.3,7.7-0.1
		c1.5,2.4,2.9,5.1,3.8,7.8c4.2,12.2,5.4,24.9,7.2,37.5c1.2,8,6.8,14.2,14.9,14.8c3.9,0.3,8-0.5,11.8-1.3c4.4-0.9,5.9-2.9,4-7.1
		c-1-2.3-2.4-4.6-4.2-6.2c-3.6-3.2-4.7-7.1-5.1-11.6c-0.3-4.2-1-8.5-1.6-12.7c-1.2-7.6-2.5-15.2-3.7-22.9
		c-1.3-8.3-2.3-16.6-3.5-24.9c-0.7-5.1-1.4-10.3-2-15.5c-0.1-0.7,0.3-1.9,0.8-2.2c0.6-0.4,1.7-0.2,2.4,0c0.7,0.3,1.4,0.9,2,1.5
		c4.7,4.8,9.5,9.5,14.1,14.3c4.1,4.3,11.8,5.2,14.4-2.8c0.5-1.4-0.1-3.3-0.4-4.9c-0.1-0.5-1.7-3-2.3-3.6c-4.6-4.6-9.2-9.1-13.9-13.5
		c-5.2-5-10.5-10-15.9-14.9c-2.8-2.5-5.7-5.1-9.7-5.7c-1.6-0.2-3.2-0.5-4.8-0.8c-0.5-0.1-1.2-0.5-1.2-0.8c-0.1-0.5,0.3-1.1,0.6-1.5
		c0.2-0.3,0.7-0.5,1-0.7c4.4-3.2,8.2-6.9,10.2-12c1.3-3.5,1.7-7.4,1-11.2c-0.4-2.4-1.2-4.7-2.3-6.8c-1.2-2.3-2.6-3.9-3.4-4.7
		c-0.6-0.6-2.6-2.7-6-4.4C156.2,5.5,151.9,5.2,149.4,5.1L149.4,5.1z"/>
	<ellipse fill="#FF0000" cx="148" cy="26.5" rx="14.4" ry="14.2"/>
	<ellipse fill="#00FF00" cx="96.2" cy="88.9" rx="5.8" ry="5.7"/>
	<ellipse fill="#00FF00" cx="198.4" cy="90.4" rx="5.8" ry="5.7"/>
	<ellipse fill="#00FF00" cx="120.7" cy="172.8" rx="7.2" ry="7.1"/>
	<ellipse fill="#00FF00" cx="178.2" cy="172.7" rx="7.2" ry="7.1"/>
	<ellipse fill="#FF8000" cx="148" cy="83.2" rx="14.4" ry="28.4"/>
</g>
<g>
	<g>
		<circle fill="#00FF00" cx="15.1" cy="70" r="10"/>
		<text transform="matrix(1 0 0 1 30.0301 74.1091)" fill="#FFFFFF" font-family="'ArialMT'" font-size="14px">Normale</text>
	</g>
	<g>
		<circle fill="#FF8000" cx="15.1" cy="95" r="10"/>
		<text transform="matrix(1 0 0 1 30.03 99.1093)" fill="#FFFFFF" font-family="'ArialMT'" font-size="14px">Moyen</text>
	</g>
	<g>
		<circle fill="#FF0000" cx="15.1" cy="120" r="10"/>
		<text transform="matrix(1 0 0 1 30.03 124.1093)" fill="#FFFFFF" font-family="'ArialMT'" font-size="14px">Critique</text>
	</g>
</g>
</svg>
